<svg width="63" height="64" viewBox="0 0 63 64" fill="none" xmlns="http://www.w3.org/2000/svg">
<path d="M51.4993 19.0241C51.3023 18.2515 50.7423 17.6682 50.1019 17.4893C48.9664 17.1704 43.4467 16.4445 31.7801 16.4445C20.1134 16.4445 14.5964 17.1704 13.453 17.4893C12.8205 17.6656 12.2605 18.2489 12.0608 19.0241C11.7782 20.1234 11.0393 24.7278 11.0393 32C11.0393 39.2696 11.7782 43.8741 12.0608 44.9785C12.2579 45.7485 12.8179 46.3319 13.4556 46.5082C14.5964 46.8297 20.1108 47.5556 31.7775 47.5556C43.4442 47.5556 48.9638 46.8297 50.1045 46.5108C50.7371 46.3345 51.2971 45.7511 51.4967 44.9759C51.7819 43.8767 52.5182 39.2593 52.5182 32C52.5182 24.7408 51.7819 20.1259 51.4993 19.0241ZM56.5186 17.7356C57.7034 22.3556 57.7034 32 57.7034 32C57.7034 32 57.7034 41.6445 56.5186 46.2645C55.8601 48.8182 53.9338 50.8274 51.4942 51.5067C47.066 52.7408 31.7775 52.7408 31.7775 52.7408C31.7775 52.7408 16.4993 52.7408 12.0608 51.5067C9.61082 50.8171 7.68712 48.8104 7.03638 46.2645C5.85156 41.6445 5.85156 32 5.85156 32C5.85156 32 5.85156 22.3556 7.03638 17.7356C7.6949 15.1819 9.62119 13.1726 12.0608 12.4934C16.5019 11.2593 31.7801 11.2593 31.7801 11.2593C31.7801 11.2593 47.066 11.2593 51.4967 12.4934C53.9442 13.183 55.8704 15.1896 56.5212 17.7356M26.5949 41.0741V22.9259L42.1504 32L26.5949 41.0741Z" fill="white"/>
</svg>
