<svg width="63" height="64" viewBox="0 0 63 64" fill="none" xmlns="http://www.w3.org/2000/svg">
<path d="M52.3888 55.3332C46.9875 55.3332 41.6511 54.1561 36.3795 51.8021C31.1079 49.448 26.3116 46.1096 21.9906 41.7869C17.6696 37.4642 14.3321 32.6679 11.978 27.398C9.62397 22.1281 8.44606 16.7917 8.44434 11.3887C8.44434 10.6109 8.7036 9.9628 9.22211 9.44428C9.74063 8.92576 10.3888 8.6665 11.1666 8.6665H21.6666C22.2715 8.6665 22.8116 8.87218 23.2869 9.28354C23.7622 9.6949 24.0431 10.1806 24.1295 10.7406L25.8147 19.8147C25.9011 20.506 25.8795 21.0893 25.7499 21.5647C25.6203 22.04 25.3826 22.4505 25.0369 22.7961L18.7499 29.148C19.6141 30.7467 20.6399 32.2911 21.8273 33.7809C23.0147 35.2708 24.3222 36.708 25.7499 38.0924C27.0894 39.4319 28.4937 40.6747 29.9629 41.8206C31.432 42.9665 32.9875 44.0139 34.6295 44.9628L40.7221 38.8702C41.111 38.4813 41.6191 38.1901 42.2466 37.9965C42.874 37.8029 43.4893 37.7485 44.0925 37.8332L53.0369 39.648C53.6419 39.8208 54.1388 40.1345 54.5277 40.5891C54.9166 41.0437 55.111 41.5509 55.111 42.1109V52.6109C55.111 53.3887 54.8517 54.0369 54.3332 54.5554C53.8147 55.0739 53.1666 55.3332 52.3888 55.3332Z" fill="white"/>
</svg>
